#tb 0: 1/25
0,          0,          0,        1,   153600, 0x00000000
0,          1,          1,        1,   153600, 0x00000000
0,          2,          2,        1,   153600, 0x00000000
0,          3,          3,        1,   153600, 0x3ad906f0
0,          4,          4,        1,   153600, 0x9f7c2e80
0,          5,          5,        1,   153600, 0x548c9e10
0,          6,          6,        1,   153600, 0xab4154e7
0,          7,          7,        1,   153600, 0x762964be
0,          8,          8,        1,   153600, 0xea6beab1
0,          9,          9,        1,   153600, 0x00805c23
0,         10,         10,        1,   153600, 0x932eebd2
0,         11,         11,        1,   153600, 0x73a9a1c4
0,         12,         12,        1,   153600, 0x3ecf80a2
0,         13,         13,        1,   153600, 0xb7266fcc
0,         14,         14,        1,   153600, 0xf9a75e02
0,         15,         15,        1,   153600, 0xa4cb4c00
0,         16,         16,        1,   153600, 0x8cc653fa
0,         17,         17,        1,   153600, 0xf0735df0
0,         18,         18,        1,   153600, 0x46945766
0,         19,         19,        1,   153600, 0x1cf75120
0,         20,         20,        1,   153600, 0x015d4476
0,         21,         21,        1,   153600, 0x4ad6419c
0,         22,         22,        1,   153600, 0xf97a1292
0,         23,         23,        1,   153600, 0x8048c6bd
0,         24,         24,        1,   153600, 0x0aa97f7f
0,         25,         25,        1,   153600, 0xcd1a0531
0,         26,         26,        1,   153600, 0xeb9e72b4
0,         27,         27,        1,   153600, 0x5a61d657
0,         28,         28,        1,   153600, 0xc4eb1759
0,         29,         29,        1,   153600, 0x07b05b0c
0,         30,         30,        1,   153600, 0x9c417927
0,         31,         31,        1,   153600, 0xa3a28516
0,         32,         32,        1,   153600, 0x78e97511
0,         33,         33,        1,   153600, 0x05c94e38
0,         34,         34,        1,   153600, 0x0003ffa4
0,         35,         35,        1,   153600, 0x46489827
0,         36,         36,        1,   153600, 0xa6ac0ea6
0,         37,         37,        1,   153600, 0xf4ae7e9a
0,         38,         38,        1,   153600, 0xe07dd526
0,         39,         39,        1,   153600, 0x5c0d0ab9
0,         40,         40,        1,   153600, 0xad542525
0,         41,         41,        1,   153600, 0xa72a35b1
0,         42,         42,        1,   153600, 0x373d3cbd
0,         43,         43,        1,   153600, 0x242c3cad
0,         44,         44,        1,   153600, 0xbe4f44e5
0,         45,         45,        1,   153600, 0x3b883575
0,         46,         46,        1,   153600, 0xcd7d2995
0,         47,         47,        1,   153600, 0x89a01f99
0,         48,         48,        1,   153600, 0x79ac0861
0,         49,         49,        1,   153600, 0xefb6ee22
0,         50,         50,        1,   153600, 0x4498d6b2
0,         51,         51,        1,   153600, 0x99efd0a6
0,         52,         52,        1,   153600, 0xd937c282
0,         53,         53,        1,   153600, 0xa6c6bbb2
0,         54,         54,        1,   153600, 0xf667bf0e
0,         55,         55,        1,   153600, 0x83b2c12e
0,         56,         56,        1,   153600, 0xcbd6c766
0,         57,         57,        1,   153600, 0xc5b3c762
0,         58,         58,        1,   153600, 0xe51fc5fa
0,         59,         59,        1,   153600, 0x6542c5ee
0,         60,         60,        1,   153600, 0x59d2c946
0,         61,         61,        1,   153600, 0xccaacdde
0,         62,         62,        1,   153600, 0x884ec6aa
0,         63,         63,        1,   153600, 0xb3d7c2de
0,         64,         64,        1,   153600, 0xd4e8c1a2
0,         65,         65,        1,   153600, 0xa416c3ba
0,         66,         66,        1,   153600, 0x6905b62e
0,         67,         67,        1,   153600, 0xce16b456
0,         68,         68,        1,   153600, 0xcbd9a67e
0,         69,         69,        1,   153600, 0x6785afd6
0,         70,         70,        1,   153600, 0x6fd7b1fa
0,         71,         71,        1,   153600, 0x2a65b77e
0,         72,         72,        1,   153600, 0xa162aff6
0,         73,         73,        1,   153600, 0x227ea802
0,         74,         74,        1,   153600, 0x98de79fa
